# xmcd CD database file
#
# Track frame offsets:
#	150
#	11050
#	18735
#	34550
#	50385
#	62625
#	85000
#	94965
#	105545
#	122290
#	126365
#	140280
#	156840
#	168900
#	180820
#	196380
#	210840
#	237565
#	252050
#	265130
#	278605
#	298565
#
# Disc length: 4164 seconds
#
# Revision: 0
# Processed by: cddbd v1.5.2PL0 Copyright (c) Steve Scherf et al.
# Submitted via: CDex 1.51
#
DISCID=21104216
DTITLE=Frank Sinatra - Ring-A-Ding Ding! CD2
DYEAR=2013
DGENRE=Jazz
TTITLE0=Studio Chatter
TTITLE1=Ring-A-Ding 1
TTITLE2=Ring-A-Ding 2
TTITLE3=Ring-A-Ding 3
TTITLE4=Let's Fall In Love
TTITLE5=In The Still Of The Night 1
TTITLE6=In The Still Of The Night 2
TTITLE7=A Foggy Day
TTITLE8=Let's Face The Music And Dance 1
TTITLE9=Let's Face The Music And Dance 2
TTITLE10=Let's Face The Music And Dance 3
TTITLE11=You'd Be So Easy To Love 1
TTITLE12=You'd Be So Easy To Love 2
TTITLE13=A Fine Romance
TTITLE14=The Coffee Song
TTITLE15=Be Careful It's My Heart
TTITLE16=Have You Met Miss Jones? 1
TTITLE17=Have You Met Miss Jones? 2
TTITLE18=I've Got My Love To Keep Me Warm
TTITLE19=Zing! Went The Strings Of My Heart
TTITLE20=You And The Night And The Music
TTITLE21=When I Take My Sugar To Tea
EXTD=YEAR: 2013
EXTT0=
EXTT1=
EXTT2=
EXTT3=
EXTT4=
EXTT5=
EXTT6=
EXTT7=
EXTT8=
EXTT9=
EXTT10=
EXTT11=
EXTT12=
EXTT13=
EXTT14=
EXTT15=
EXTT16=
EXTT17=
EXTT18=
EXTT19=
EXTT20=
EXTT21=
PLAYORDER=
